# xmcd
#
# Track frame offsets:
#	150
#	2560
#	18628
#	32970
#	50264
#	66481
#	84340
#	87072
#	104043
#	120240
#	135791
#	137819
#	154723
#	168424
#	184304
#	199496
#	216518
#
# Disc length: 3100 seconds
#
# Revision: 0
# Processed by: cddbd v1.5.2PL0 Copyright (c) Steve Scherf et al.
# Submitted via: audiograbber 1.83.01
#
DISCID=eb0c1a11
DTITLE=Corey Smith - The Broken Record
DYEAR=2011
DGENRE=Country
TTITLE0=Intro
TTITLE1=If I Could Do It Again
TTITLE2=Carolina
TTITLE3=I Love Everyone
TTITLE4=No Way (Out with a Smile)
TTITLE5=Heart Attack
TTITLE6=Hey Corey
TTITLE7=Broken Record
TTITLE8=Maybe Next Year
TTITLE9=Backroad
TTITLE10=Roots
TTITLE11=New Day
TTITLE12=Sugar Daddy
TTITLE13=Twenty-One (2011)
TTITLE14=Something to Lose
TTITLE15=Down to Earth
TTITLE16=Silly
EXTD=
EXTT0=
EXTT1=
EXTT2=
EXTT3=
EXTT4=
EXTT5=
EXTT6=
EXTT7=
EXTT8=
EXTT9=
EXTT10=
EXTT11=
EXTT12=
EXTT13=
EXTT14=
EXTT15=
EXTT16=
PLAYORDER=
